<svg id="PROJECT_DETAIL" data-name="PROJECT DETAIL" xmlns="http://www.w3.org/2000/svg" width="50" height="50" viewBox="0 0 50 50">
  <metadata><?xpacket begin="﻿" id="W5M0MpCehiHzreSzNTczkc9d"?>
<x:xmpmeta xmlns:x="adobe:ns:meta/" x:xmptk="Adobe XMP Core 5.6-c140 79.160451, 2017/05/06-01:08:21        ">
   <rdf:RDF xmlns:rdf="http://www.w3.org/1999/02/22-rdf-syntax-ns#">
      <rdf:Description rdf:about=""/>
   </rdf:RDF>
</x:xmpmeta>
                                                                                                    
                                                                                                    
                                                                                                    
                                                                                                    
                                                                                                    
                                                                                                    
                                                                                                    
                                                                                                    
                                                                                                    
                                                                                                    
                                                                                                    
                                                                                                    
                                                                                                    
                                                                                                    
                                                                                                    
                                                                                                    
                                                                                                    
                                                                                                    
                                                                                                    
                                                                                                    
                           
<?xpacket end="w"?></metadata>
<defs>
    <style>
      .cls-1, .cls-12, .cls-18, .cls-32, .cls-36, .cls-4, .cls-5, .cls-7 {
        font-size: 14px;
      }

      .cls-1, .cls-26, .cls-28, .cls-30, .cls-5, .cls-7 {
        fill: #666;
      }

      .cls-1, .cls-10, .cls-12, .cls-14, .cls-19, .cls-2, .cls-21, .cls-24, .cls-28, .cls-31, .cls-36, .cls-7, .cls-9 {
        font-family: Roboto;
      }

      .cls-1, .cls-12, .cls-25, .cls-26, .cls-28, .cls-30, .cls-36, .cls-4, .cls-5, .cls-7 {
        font-weight: 300;
      }

      .cls-10, .cls-2 {
        font-size: 13px;
      }

      .cls-10, .cls-13, .cls-2, .cls-32 {
        fill: #999;
      }

      .cls-10, .cls-3, .cls-31, .cls-9 {
        text-transform: uppercase;
      }

      .cls-11, .cls-21, .cls-4 {
        fill: #009cff;
      }

      .cls-6 {
        fill: #eee;
      }

      .cls-12, .cls-17, .cls-18, .cls-19, .cls-21, .cls-31, .cls-7 {
        text-anchor: middle;
      }

      .cls-7 {
        font-style: italic;
      }

      .cls-8 {
        font-size: 60px;
      }

      .cls-12, .cls-17, .cls-18, .cls-20, .cls-23, .cls-31, .cls-33, .cls-8, .cls-9 {
        fill: #fff;
      }

      .cls-18, .cls-32, .cls-8 {
        font-family: "Font Awesome 5 Brands";
      }

      .cls-26, .cls-9 {
        font-size: 12px;
      }

      .cls-14, .cls-19, .cls-21, .cls-28 {
        font-size: 17px;
      }

      .cls-14, .cls-19, .cls-24, .cls-29 {
        fill: #333;
      }

      .cls-14, .cls-19, .cls-21, .cls-24, .cls-29 {
        font-weight: 700;
      }

      .cls-15 {
        fill: none;
        stroke: #ddd;
      }

      .cls-15, .cls-20 {
        stroke-width: 1px;
      }

      .cls-16 {
        fill: #bbb;
      }

      .cls-17 {
        font-size: 50px;
        font-family: "Font Awesome 5 Free";
      }

      .cls-17, .cls-22 {
        opacity: 0.5;
      }

      .cls-20 {
        stroke: #007eff;
      }

      .cls-23, .cls-34 {
        fill-rule: evenodd;
      }

      .cls-24 {
        font-size: 32px;
      }

      .cls-25 {
        font-size: 22px;
      }

      .cls-27 {
        fill: #3e35b7;
      }

      .cls-31 {
        font-size: 15px;
        font-weight: 500;
      }

      .cls-35 {
        fill: #ddd;
      }

      .cls-36 {
        fill: #010328;
      }
    </style>
  </defs>
  <g id="Content">
    <text id="Description_here._Lorem_ipsum_dolor_sit_amet_consectetur_adipi" data-name="Description here. Lorem ipsum dolor sit amet, consectetur adipi" class="cls-1" x="-685" y="343.068">Description here. Lorem ipsum dolor sit amet, consectetur adipiscing elit. Cras consectetur eu mi quis ornare. Aliquam tortor diam, lobortis in nunc vel, pellentesque consectetur enim. Mauris ullamcorper sapien vel feugiat blandit. In pretium nunc sit amet dui semper, vel consectetur.</text>
    <g id="about">
      <text id="About_the_project_www.website.com_Lorem_ipsum_dolor_sit_amet_" data-name="About the project  www.website.com  Lorem ipsum dolor sit amet," class="cls-2" x="-685" y="474.068"><tspan class="cls-3">About the project</tspan><tspan class="cls-4" x="-685" dy="33.6">www.website.com</tspan><tspan class="cls-5" x="-685" dy="33.6">Lorem ipsum dolor sit amet, consectetur adipiscing elit. Cras consectetur eu mi quis ornare. Aliquam tortor diam, lobortis in nunc vel, pellentesque consectetur enim. Mauris ullamcorper sapien vel feugiat blandit. In pretium nunc sit amet dui semper, vel consectetur orci. Lorem ipsum dolor sit amet, consectetur adipiscing elit. Cras consectetur eu mi quis ornare. Aliquam tortor diam.</tspan><tspan class="cls-5" x="-685" dy="33.6">Lorem ipsum dolor sit amet, consectetur adipiscing elit. Cras consectetur eu mi quis ornare. Aliquam tortor diam, lobortis in nunc vel, pellentesque consectetur enim. Mauris ullamcorper sapien vel feugiat blandit. In pretium nunc sit amet dui semper, vel consectetur orci lobortis in nunc vel, pellentesque consectetur enim. Mauris ullamcorper sapien vel feugiat blandit. In pretium nunc sit amet dui semper</tspan></text>
      <rect id="line_eee_copy_6" data-name="line #eee copy 6" class="cls-6" x="-685" y="442" width="653" height="1"/>
      <g id="Video">
        <rect class="cls-6" x="-685" y="832" width="750" height="423"/>
        <text id="Video_Title_Here_Lorem_Ipsum_Dolor_Sit" data-name="Video Title Here Lorem Ipsum Dolor Sit" class="cls-7" x="-636" y="1274.61"><tspan x="-636">Video Title Here Lorem Ipsum Dolor Sit</tspan></text>
        <text id="youtube" class="cls-8" x="-343.918" y="1058.06">youtube</text>
        <text id="Youtube_Video" data-name="Youtube Video" class="cls-9" x="-358.988" y="1087.12">Youtube Video</text>
      </g>
    </g>
    <g id="Materials">
      <text id="Materials-2" data-name="Materials" class="cls-10" x="-685" y="1358.07">Materials</text>
      <rect id="line_eee_copy_6-2" data-name="line #eee copy 6" class="cls-6" x="-685" y="1326" width="750" height="1"/>
      <g id="btn_copy" data-name="btn copy">
        <rect id="Rounded_Rectangle_1" data-name="Rounded Rectangle 1" class="cls-11" x="-685" y="1407" width="160" height="40"/>
        <text id="Whitepaper" class="cls-12" x="-605.49" y="1430.605"><tspan x="-605.49">Whitepaper</tspan></text>
        <rect id="Rounded_Rectangle_1_copy_3" data-name="Rounded Rectangle 1 copy 3" class="cls-11" x="-510" y="1407" width="160" height="40"/>
        <text id="Lite_paper" data-name="Lite paper" class="cls-12" x="-430.492" y="1430.605"><tspan x="-430.492">Lite paper</tspan></text>
        <rect id="Rounded_Rectangle_1_copy_4" data-name="Rounded Rectangle 1 copy 4" class="cls-11" x="-335" y="1407" width="160" height="40"/>
        <text id="Yellow_paper" data-name="Yellow paper" class="cls-12" x="-255.492" y="1430.605"><tspan x="-255.492">Yellow paper</tspan></text>
      </g>
    </g>
    <g id="News">
      <text id="News-2" data-name="News" class="cls-10" x="-685" y="1519.07">News</text>
      <rect id="line_eee_copy_6-3" data-name="line #eee copy 6" class="cls-6" x="-685" y="1487" width="750" height="1"/>
      <g id="img">
        <rect class="cls-13" x="-685" y="1566" width="230" height="153"/>
        <text id="News_Image_750_x_500_px" data-name="News Image 750 x 500 px" class="cls-12" x="-569.66" y="1633.375"><tspan x="-569.66">News Image</tspan><tspan x="-569.66" dy="16.8">750 x 500 px</tspan></text>
      </g>
      <text id="News_Title_Here_Lorem_Ipsum_Dolor_Sit_Amet" data-name="News Title Here Lorem Ipsum Dolor Sit Amet" class="cls-14" x="-685" y="1733.535">News Title Here Lorem Ipsum Dolor Sit Amet</text>
      <g id="img_copy_2" data-name="img copy 2">
        <rect class="cls-13" x="-425" y="1566" width="230" height="153"/>
        <text id="News_Image_750_x_500_px-2" data-name="News Image 750 x 500 px" class="cls-12" x="-309.662" y="1633.375"><tspan x="-309.662">News Image</tspan><tspan x="-309.662" dy="16.8">750 x 500 px</tspan></text>
      </g>
      <text id="News_Title_Here_Lorem_Ipsum_Dolor_Sit_Amet_copy" data-name="News Title Here Lorem Ipsum Dolor Sit Amet copy" class="cls-14" x="-425" y="1733.535">News Title Here Lorem Ipsum Dolor Sit Amet</text>
      <g id="img_copy_3" data-name="img copy 3">
        <rect class="cls-13" x="-165" y="1566" width="230" height="153"/>
        <text id="News_Image_750_x_500_px-3" data-name="News Image 750 x 500 px" class="cls-12" x="-49.662" y="1633.375"><tspan x="-49.662">News Image</tspan><tspan x="-49.662" dy="16.8">750 x 500 px</tspan></text>
      </g>
      <text id="News_Title_Here_Lorem_Ipsum_Dolor_Sit_Amet_copy_2" data-name="News Title Here Lorem Ipsum Dolor Sit Amet copy 2" class="cls-14" x="-165" y="1733.535">News Title Here Lorem Ipsum Dolor Sit Amet</text>
    </g>
    <g id="TEAM">
      <text id="Team-2" data-name="Team" class="cls-10" x="-685" y="1848.07">Team</text>
      <rect id="line_eee_copy_6-4" data-name="line #eee copy 6" class="cls-6" x="-685" y="1816" width="750" height="1"/>
      <g id="_1" data-name="1">
        <rect id="outline" class="cls-15" x="-685" y="1895" width="230" height="250"/>
        <circle class="cls-16" cx="-570" cy="1985" r="60"/>
        <text id="user" class="cls-17" x="-570.24" y="2003.745"><tspan x="-570.24">user</tspan></text>
        <g id="linked_in" data-name="linked in">
          <circle id="Ellipse_22_copy" data-name="Ellipse 22 copy" class="cls-11" cx="-525" cy="2030" r="15"/>
          <text id="linkedin-in" class="cls-18" x="-524.815" y="2036.685"><tspan x="-524.815">linkedin-in</tspan></text>
        </g>
        <text id="Jonathan_Lim_CEO" data-name="Jonathan Lim CEO" class="cls-19" x="-685" y="2064.535"><tspan x="-685">Jonathan Lim</tspan><tspan class="cls-5" x="-685" dy="16.8">CEO</tspan></text>
      </g>
      <g id="_2" data-name="2">
        <rect id="outline-2" data-name="outline" class="cls-15" x="-425" y="1895" width="230" height="250"/>
        <circle class="cls-16" cx="-310" cy="1985" r="60"/>
        <text id="user-2" data-name="user" class="cls-17" x="-310.24" y="2003.745"><tspan x="-310.24">user</tspan></text>
        <g id="linked_in-2" data-name="linked in">
          <circle id="Ellipse_22_copy-2" data-name="Ellipse 22 copy" class="cls-11" cx="-265" cy="2030" r="15"/>
          <text id="linkedin-in-2" data-name="linkedin-in" class="cls-18" x="-264.815" y="2036.685"><tspan x="-264.815">linkedin-in</tspan></text>
        </g>
        <text id="Jonathan_Lim_CEO-2" data-name="Jonathan Lim CEO" class="cls-19" x="-425" y="2064.535"><tspan x="-425">Jonathan Lim</tspan><tspan class="cls-5" x="-425" dy="16.8">CEO</tspan></text>
      </g>
      <g id="_3" data-name="3">
        <rect id="outline-3" data-name="outline" class="cls-15" x="-165" y="1895" width="230" height="250"/>
        <circle class="cls-16" cx="-50" cy="1985" r="60"/>
        <text id="user-3" data-name="user" class="cls-17" x="-50.24" y="2003.745"><tspan x="-50.24">user</tspan></text>
        <g id="linked_in-3" data-name="linked in">
          <circle id="Ellipse_22_copy-3" data-name="Ellipse 22 copy" class="cls-11" cx="-5" cy="2030" r="15"/>
          <text id="linkedin-in-3" data-name="linkedin-in" class="cls-18" x="-4.814" y="2036.685"><tspan x="-4.814">linkedin-in</tspan></text>
        </g>
        <text id="Jonathan_Lim_CEO-3" data-name="Jonathan Lim CEO" class="cls-19" x="-165" y="2064.535"><tspan x="-165">Jonathan Lim</tspan><tspan class="cls-5" x="-165" dy="16.8">CEO</tspan></text>
      </g>
    </g>
    <g id="Milestones">
      <text id="Milestones-2" data-name="Milestones" class="cls-10" x="-685" y="2497.07">Milestones</text>
      <rect id="line_eee_copy_6-5" data-name="line #eee copy 6" class="cls-6" x="-685" y="2465" width="750" height="1"/>
      <g id="_1-2" data-name="1">
        <rect id="outline-4" data-name="outline" class="cls-15" x="-265" y="2544" width="330" height="140"/>
        <text id="_2019_Q1_-_Q2_Market_research_Prototype_design_Preparations_fo" data-name="2019 Q1 - Q2 Market research; Prototype design; Preparations fo" class="cls-14" x="-264.815" y="2566.535">2019 Q1 - Q2<tspan class="cls-5" x="-264.815" dy="16.8">Market research;</tspan><tspan class="cls-5" x="-264.815" dy="16.8">Prototype design;</tspan><tspan class="cls-5" x="-264.815" dy="16.8">Preparations for license.</tspan></text>
      </g>
      <g id="_2-2" data-name="2">
        <rect id="outline-5" data-name="outline" class="cls-15" x="-686" y="2704" width="330" height="140"/>
        <text id="_2019_Q3_-_Q4_Angel_funding_Brand_registration_White_paper." data-name="2019 Q3 - Q4 Angel funding; Brand registration; White paper." class="cls-14" x="-685.815" y="2726.535">2019 Q3 - Q4<tspan class="cls-5" x="-685.815" dy="16.8">Angel funding;</tspan><tspan class="cls-5" x="-685.815" dy="16.8">Brand registration;</tspan><tspan class="cls-5" x="-685.815" dy="16.8">White paper.</tspan></text>
      </g>
      <g id="_3-2" data-name="3">
        <rect id="outline-6" data-name="outline" class="cls-15" x="-265" y="2864" width="330" height="165"/>
        <text id="_2020_Q1_-_Q2_New_website_Cross-chain_design_Game_protocol_des" data-name="2020 Q1 - Q2 New website; Cross-chain design; Game protocol des" class="cls-14" x="-264.815" y="2886.535">2020 Q1 - Q2<tspan class="cls-5" x="-264.815" dy="16.8">New website;</tspan><tspan class="cls-5" x="-264.815" dy="16.8">Cross-chain design;</tspan><tspan class="cls-5" x="-264.815" dy="16.8">Game protocol design;</tspan><tspan class="cls-5" x="-264.815" dy="16.8">framework design.</tspan></text>
      </g>
      <g id="_4" data-name="4">
        <rect id="outline-7" data-name="outline" class="cls-15" x="-686" y="3049" width="330" height="140"/>
        <text id="_2020_Q3_-_Q4_Blockchain_layer_development_Wallet_development_" data-name="2020 Q3 - Q4 Blockchain layer development; Wallet development; " class="cls-14" x="-685.815" y="3071.535">2020 Q3 - Q4<tspan class="cls-5" x="-685.815" dy="16.8">Blockchain layer development;</tspan><tspan class="cls-5" x="-685.815" dy="16.8">Wallet development;</tspan><tspan class="cls-5" x="-685.815" dy="16.8">Games testing.</tspan></text>
      </g>
      <rect id="vertical_line" data-name="vertical line" class="cls-11" x="-310" y="2544" width="1" height="520"/>
      <g id="number">
        <circle id="Ellipse_22_copy-4" data-name="Ellipse 22 copy" class="cls-20" cx="-310" cy="2559" r="15"/>
        <text id="_1-3" data-name="1" class="cls-21" x="-309.815" y="2564.685"><tspan x="-309.815">1</tspan></text>
        <circle id="Ellipse_22_copy_2" data-name="Ellipse 22 copy 2" class="cls-20" cx="-310" cy="2719" r="15"/>
        <text id="_2-3" data-name="2" class="cls-21" x="-309.815" y="2724.685"><tspan x="-309.815">2</tspan></text>
        <circle id="Ellipse_22_copy-5" data-name="Ellipse 22 copy" class="cls-20" cx="-310" cy="2879" r="15"/>
        <text id="_3-3" data-name="3" class="cls-21" x="-309.815" y="2884.685"><tspan x="-309.815">3</tspan></text>
        <circle id="Ellipse_22_copy_2-2" data-name="Ellipse 22 copy 2" class="cls-20" cx="-310" cy="3064" r="15"/>
        <text id="_4-2" data-name="4" class="cls-21" x="-309.815" y="3069.685"><tspan x="-309.815">4</tspan></text>
      </g>
    </g>
    <g id="image">
      <g id="arrow">
        <circle class="cls-22" cx="25" cy="25" r="25"/>
        <path id="_" data-name="&gt;" class="cls-23" d="M28.576,15L18.7,25.138l1.41,1.449,9.874-10.141Zm-9.169,9.416L18,25.862,27.871,36l1.411-1.449Z"/>
        <circle id="Ellipse_21_copy" data-name="Ellipse 21 copy" class="cls-22" cx="-645" cy="25" r="25"/>
        <path id="_2-4" data-name="&lt;" class="cls-23" d="M-641.424,15L-651.3,25.138l1.411,1.449,9.874-10.141Zm-9.168,9.416L-652,25.862-642.129,36l1.41-1.449Z"/>
      </g>
    </g>
  </g>
  <g id="Title">
    <text id="Bountie_An_All-in-One_Crypto_Experience_Lorem_Ipsum_Dolor_Sit_A" data-name="Bountie An All-in-One Crypto Experience Lorem Ipsum Dolor Sit A" class="cls-24" x="-685" y="-407.932">Bountie<tspan class="cls-25" x="-685" dy="26.4">An All-in-One Crypto Experience Lorem Ipsum Dolor Sit Amet Consectetur Adipiscing Elit</tspan><tspan class="cls-26" x="-685" dy="14.4">By Company Here</tspan></text>
    <g id="logo">
      <rect class="cls-27" x="-685" y="-407" width="110" height="110"/>
    </g>
  </g>
  <g id="token_info" data-name="token info">
    <text id="Token_Name:_Title_Token_Symbol:_Symbol_Token_Platform:_Platform" data-name="Token Name: Title Token Symbol: Symbol Token Platform: Platform" class="cls-28" x="94" y="-372">Token Name: <tspan class="cls-29">Title</tspan><tspan x="94" dy="20.4">Token Symbol:<tspan class="cls-29"> Symbol</tspan></tspan><tspan x="94" dy="20.4">Token Platform:<tspan class="cls-29"> Platform</tspan></tspan><tspan x="94" dy="20.4">Token Type:<tspan class="cls-29"> ERC20</tspan></tspan><tspan x="94" dy="20.4">Accepted Currencies: <tspan class="cls-29">USD, ETH</tspan></tspan><tspan x="94" dy="20.4">Token ICO Price: <tspan class="cls-29">1 = 0.80 USD</tspan></tspan><tspan x="94" dy="20.4">Total Supply:<tspan class="cls-29"> 50.000.000.000</tspan></tspan><tspan x="94" dy="20.4">ICO Supply: <tspan class="cls-29">50.000.000.000</tspan></tspan><tspan x="94" dy="20.4">Soft Cap: <tspan class="cls-29">500.000.000 USD</tspan></tspan><tspan x="94" dy="20.4">Hard Cap: <tspan class="cls-29">50.000.000.000 USD</tspan></tspan><tspan x="94" dy="40.8">Token Allocation:</tspan><tspan class="cls-29" x="94" dy="20.4">Development <tspan class="cls-30">- </tspan>40%</tspan><tspan class="cls-29" x="94" dy="20.4">Marketing 40%Marketing <tspan class="cls-30">- </tspan>40%</tspan><tspan class="cls-29" x="94" dy="20.4">Others 40%Others <tspan class="cls-30">- </tspan>20%</tspan><tspan x="94" dy="40.8">Use of Funds:</tspan><tspan class="cls-29" x="94" dy="20.4">Development <tspan class="cls-30">- </tspan>40%</tspan><tspan class="cls-29" x="94" dy="20.4">Marketing 40%Marketing <tspan class="cls-30">- </tspan>40%</tspan><tspan class="cls-29" x="94" dy="20.4">Others 40%Others <tspan class="cls-30">- </tspan>20%</tspan><tspan x="94" dy="40.8">Presale</tspan><tspan x="94" dy="20.4">Starts: PresaleStarts: <tspan class="cls-29">1 Mar 2019 (12pm)</tspan></tspan><tspan x="94" dy="20.4">Ends: <tspan class="cls-29">31 Mar 2019 (11:59am)</tspan></tspan><tspan x="94" dy="20.4">Bonus: <tspan class="cls-29">5%</tspan></tspan><tspan x="94" dy="40.8">Publicsale</tspan><tspan x="94" dy="20.4">Starts: PublicsaleStarts: PublicsaleStarts: <tspan class="cls-29">1 Mar 2019 (12pm)</tspan></tspan><tspan x="94" dy="20.4">Ends: <tspan class="cls-29">31 Mar 2019 (11:59am)</tspan></tspan><tspan x="94" dy="20.4">Country:  <tspan class="cls-29">Singapore</tspan></tspan><tspan x="94" dy="20.4">Restricted Countries:  <tspan class="cls-29">China</tspan></tspan></text>
    <rect id="line_eee" data-name="line #eee" class="cls-6" x="125" y="-246" width="300" height="1"/>
    <rect id="line_eee_copy_4" data-name="line #eee copy 4" class="cls-6" x="125" y="-34" width="300" height="1"/>
    <rect id="line_eee_copy_7" data-name="line #eee copy 7" class="cls-6" x="125" y="114" width="300" height="1"/>
    <rect id="line_eee_copy_5" data-name="line #eee copy 5" class="cls-6" x="125" y="265" width="300" height="1"/>
    <rect id="line_eee_copy_8" data-name="line #eee copy 8" class="cls-6" x="125" y="415" width="300" height="1"/>
    <rect id="line_eee_copy_8-2" data-name="line #eee copy 8" class="cls-6" x="125" y="536" width="300" height="1"/>
    <g id="big_btn" data-name="big btn">
      <rect id="Rounded_Rectangle_1_copy_2" data-name="Rounded Rectangle 1 copy 2" class="cls-11" x="124" y="636" width="220" height="50"/>
      <text id="Participate_Now" data-name="Participate Now" class="cls-31" x="233.508" y="665.605"><tspan x="233.508">Participate Now</tspan></text>
    </g>
    <text id="facebook-f_telegram-plane_twitter_linkedin-in_medium-m_" data-name="facebook-f   telegram-plane   twitter   linkedin-in   medium-m " class="cls-32" x="123.927" y="742.125">facebook-f   telegram-plane   twitter   linkedin-in   medium-m   github-alt   discord   btc   bitcoin   reddit-alien</text>
    <rect id="outline-8" data-name="outline" class="cls-15" x="95" y="-407" width="360" height="1180"/>
    <rect id="blue_top" data-name="blue top" class="cls-11" x="95" y="-407" width="360" height="5"/>
  </g>
  <rect id="white_bg" data-name="white bg" class="cls-33" x="-915" y="-537" width="1600" height="70"/>
  <path id="Logo-2" data-name="Logo" class="cls-34" d="M-653.888-522h-3.033l-9.688,10.892-6.978-8.687h2.78l4.394,5.193,6.74-7.4h-2.94l-3.741,4.105-3.454-4.082h-8.317l11.426,14.227,10.741-12.068h2.854l-13.664,16.186-14.782-18.346h-2.765l17.505,21.756,18.4-21.778h-5.48Zm-12.845,36.134,6.3,3.867,1.116-1.87-7.441-4.566-6.854,4.381,1.117,1.87Zm-0.913-3.945v-8.1l-14.543-17.725H-685l15.188,18.511v6.087l-5.827,3.582,1.116,1.87Zm4.51-1.226v-6.087l15.27-18.611-0.043-.037h-2.736L-665.3-497.911v8.1l6.976,4.288,1.116-1.871Zm31.027-9.049a7.559,7.559,0,0,1-7.531-7.591,7.586,7.586,0,0,1,7.531-7.591,7.458,7.458,0,0,1,6.532,3.879c-1.269.671-1.373,0.734-2.788,1.426a4.319,4.319,0,0,0-3.744-2.159,4.443,4.443,0,0,0-4.41,4.445,4.429,4.429,0,0,0,4.41,4.445,4.333,4.333,0,0,0,3.87-2.327c1.414,0.734,1.456.818,2.787,1.425A7.464,7.464,0,0,1-632.109-500.087Zm18.2,0.146a7.7,7.7,0,0,1-7.677-7.737,7.705,7.705,0,0,1,7.677-7.758,7.736,7.736,0,0,1,7.7,7.758A7.732,7.732,0,0,1-613.907-499.941Zm-4.536-7.737a4.591,4.591,0,0,0,4.536,4.571,4.555,4.555,0,0,0,4.493-4.571,4.574,4.574,0,0,0-4.493-4.592A4.61,4.61,0,0,0-618.443-507.678Zm19.575-2.789v10.359h-2.85v-15.035h3.745l6.637,9.352v-9.352h2.766v15.035h-2.766Zm22.508,10.38a7.558,7.558,0,0,1-7.53-7.591,7.585,7.585,0,0,1,7.53-7.591,7.454,7.454,0,0,1,6.532,3.879c-1.267.671-1.372,0.734-2.786,1.426a4.324,4.324,0,0,0-3.746-2.159,4.443,4.443,0,0,0-4.41,4.445,4.429,4.429,0,0,0,4.41,4.445,4.332,4.332,0,0,0,3.87-2.327c1.415,0.734,1.456.818,2.788,1.425A7.464,7.464,0,0,1-576.36-500.087Zm18.2,0.146a7.7,7.7,0,0,1-7.676-7.737,7.706,7.706,0,0,1,7.676-7.758,7.737,7.737,0,0,1,7.7,7.758A7.733,7.733,0,0,1-558.158-499.941Zm-4.536-7.737a4.591,4.591,0,0,0,4.536,4.571,4.554,4.554,0,0,0,4.493-4.571,4.573,4.573,0,0,0-4.493-4.592A4.61,4.61,0,0,0-562.694-507.678Zm25.484,2.013,4.162,5.557h-4l-3.744-5.389h-1.6v5.389h-3.286V-515.1h6.7c3.744,0,5.18,2.37,5.18,4.8a4.479,4.479,0,0,1-3.536,4.635h0.124Zm-5.18-6.878v4.509h2.539c1.56,0,2.85-.357,2.85-2.266,0-1.949-1.29-2.243-2.85-2.243h-2.539Zm14.645-2.558h6.407c3.849,0,6.741,2.453,6.741,7.4,0,4.341-2.206,7.57-6.741,7.57h-6.407V-515.1Zm3.266,12.2h2.912c1.893,0,3.7-1.174,3.7-4.487,0-3.02-1.061-4.949-4.285-4.949h-2.33v9.436Zm15.061-12.2h3.266v14.972h-3.266V-515.1Zm7.633,14.972,6.741-14.951h3.286l6.637,14.951h-3.162l-1.456-3.313h-7.511l-1.561,3.313h-2.974Zm8.425-12.141-2.5,5.787h4.931l-2.412-5.787h-0.023Zm-136.632,16.493-3.938,7.212h-1.152l-4.132-7.212h1.9l2.9,5.214,2.76-5.214h1.664Zm19.444,7.212h-7.392v-7.212h7.322v1.23h-5.658v1.607h3.3v1.231h-3.3v1.789h5.728v1.355Zm21.593,0h-1.139l-5.255-4.458a5.116,5.116,0,0,1-.6-0.588c0.046,0.467.07,0.835,0.07,1.1v3.942h-1.5v-7.212h1.137l5.035,4.249a7.7,7.7,0,0,1,.817.783q-0.069-1.006-.069-1.244v-3.788h1.5v7.212Zm20.385-5.926h-3.3v5.926h-1.664v-5.926h-3.286v-1.286h8.251v1.286Zm20.22,4.221a1.825,1.825,0,0,1-.383,1.356,2.089,2.089,0,0,1-1.393.349h-4.521a2.089,2.089,0,0,1-1.393-.349,1.826,1.826,0,0,1-.382-1.356v-5.507h1.664v5.857h4.743v-5.857h1.665v5.507Zm22.259,1.7h-2.386l-2.885-2.725h-1.58v2.725h-1.637v-7.212h6.13a1.336,1.336,0,0,1,1.608,1.4v1.691a1.191,1.191,0,0,1-.832,1.3,8.458,8.458,0,0,1-1.72.1Zm-2.358-4.529v-0.866a0.491,0.491,0,0,0-.208-0.476,1.089,1.089,0,0,0-.541-0.1h-3.744v2.012h3.744a1.077,1.077,0,0,0,.541-0.1A0.491,0.491,0,0,0-528.449-493.094Zm22.494,4.529h-7.392v-7.212h7.322v1.23h-5.658v1.607h3.3v1.231h-3.3v1.789h5.728v1.355Zm20.954-1.7a1.806,1.806,0,0,1-.389,1.356,2.116,2.116,0,0,1-1.4.349h-4.423a1.939,1.939,0,0,1-1.443-.391,2.365,2.365,0,0,1-.346-1.509l1.469-.308v0.853h5.062v-1.65h-4.465a2.092,2.092,0,0,1-1.394-.349,1.831,1.831,0,0,1-.381-1.357v-0.8a1.83,1.83,0,0,1,.381-1.356,2.1,2.1,0,0,1,1.394-.349h4.064a2.058,2.058,0,0,1,1.4.356,1.9,1.9,0,0,1,.375,1.377l-1.47.349v-0.824h-4.688v1.551h4.466a2.116,2.116,0,0,1,1.4.35,1.8,1.8,0,0,1,.389,1.356v0.992Z"/>
  <rect id="line_ddd" data-name="line #ddd" class="cls-35" x="-915" y="-468" width="1600" height="1"/>
  <text id="Start_a_Project_Explore_Login_Sign_up" data-name="Start a Project          Explore          Login / Sign up" class="cls-36" x="120.763" y="-499.151">Start a Project          Explore          Login / Sign up</text>
</svg>
