<svg id="START_A_TOKENSALE" data-name="START A TOKENSALE" xmlns="http://www.w3.org/2000/svg" width="30" height="30" viewBox="0 0 30 30">
  <metadata><?xpacket begin="﻿" id="W5M0MpCehiHzreSzNTczkc9d"?>
<x:xmpmeta xmlns:x="adobe:ns:meta/" x:xmptk="Adobe XMP Core 5.6-c140 79.160451, 2017/05/06-01:08:21        ">
   <rdf:RDF xmlns:rdf="http://www.w3.org/1999/02/22-rdf-syntax-ns#">
      <rdf:Description rdf:about=""/>
   </rdf:RDF>
</x:xmpmeta>
                                                                                                    
                                                                                                    
                                                                                                    
                                                                                                    
                                                                                                    
                                                                                                    
                                                                                                    
                                                                                                    
                                                                                                    
                                                                                                    
                                                                                                    
                                                                                                    
                                                                                                    
                                                                                                    
                                                                                                    
                                                                                                    
                                                                                                    
                                                                                                    
                                                                                                    
                                                                                                    
                           
<?xpacket end="w"?></metadata>
<defs>
    <style>
      .cls-1 {
        font-size: 32px;
      }

      .cls-1, .cls-12, .cls-14 {
        fill: #333;
      }

      .cls-1, .cls-11, .cls-14, .cls-16, .cls-17, .cls-2, .cls-21, .cls-5, .cls-7 {
        font-family: Roboto;
      }

      .cls-1, .cls-3 {
        font-weight: 700;
      }

      .cls-2, .cls-21, .cls-9 {
        font-size: 14px;
      }

      .cls-2, .cls-5 {
        fill: #666;
      }

      .cls-2, .cls-21, .cls-5, .cls-7 {
        font-weight: 300;
      }

      .cls-11, .cls-14, .cls-16, .cls-17, .cls-3 {
        text-transform: uppercase;
      }

      .cls-11, .cls-16, .cls-18, .cls-4 {
        fill: #fff;
      }

      .cls-4 {
        stroke: #ddd;
        stroke-width: 1px;
      }

      .cls-5, .cls-6, .cls-7 {
        font-size: 12px;
      }

      .cls-6, .cls-8, .cls-9 {
        fill: #bbb;
      }

      .cls-6, .cls-9 {
        text-anchor: end;
      }

      .cls-6 {
        font-family: FontAwesome5FreeSolid, "Font Awesome 5 Free";
      }

      .cls-15, .cls-17, .cls-7 {
        fill: #999;
      }

      .cls-7 {
        font-style: italic;
      }

      .cls-19, .cls-8 {
        fill-rule: evenodd;
      }

      .cls-9 {
        font-family: "Font Awesome 5 Free";
      }

      .cls-10 {
        fill: #009cff;
      }

      .cls-11 {
        font-size: 15px;
        text-anchor: middle;
        font-weight: 500;
      }

      .cls-13 {
        fill: #eee;
      }

      .cls-14, .cls-16, .cls-17 {
        font-size: 13px;
      }

      .cls-20 {
        fill: #ddd;
      }

      .cls-21 {
        fill: #010328;
      }
    </style>
  </defs>
  <text id="Start_a_Tokensale-2" data-name="Start a Tokensale" class="cls-1" x="-461.661" y="-530.31">Start a Tokensale</text>
  <g id="Step_3" data-name="Step 3">
    <g id="FORM">
      <text id="Restricted_Countries_Accepted_Currencies_Soft_Cap_Hard_Cap_" data-name="Restricted Countries  Accepted Currencies  Soft Cap  Hard Cap  " class="cls-2" x="-711" y="-321">Restricted Countries<tspan x="-711" dy="33.6">Accepted Currencies</tspan><tspan x="-711" dy="33.6">Soft Cap</tspan><tspan x="-711" dy="33.6">Hard Cap</tspan><tspan class="cls-3" x="-711" dy="50.4">Pre-sale</tspan><tspan x="-711" dy="33.6">Starts</tspan><tspan x="-711" dy="33.6">Ends</tspan><tspan x="-711" dy="33.6">Bonus %</tspan><tspan class="cls-3" x="-711" dy="50.4">Public Sale</tspan><tspan x="-711" dy="33.6">Starts</tspan><tspan x="-711" dy="33.6">Ends</tspan></text>
      <rect id="textfield_copy_4" data-name="textfield copy 4" class="cls-4" x="-516" y="-334" width="555" height="40"/>
      <text id="Select" class="cls-5" x="-502.713" y="-309.513">Select</text>
      <text id="angle-down" class="cls-6" x="21.287" y="-309.513"><tspan x="21.287">angle-down</tspan></text>
      <rect id="textfield_copy_26" data-name="textfield copy 26" class="cls-4" x="-516" y="-274" width="555" height="40"/>
      <text id="Select_copy" data-name="Select copy" class="cls-5" x="-502.713" y="-249.513">Select</text>
      <text id="angle-down_copy" data-name="angle-down copy" class="cls-6" x="21.287" y="-249.513"><tspan x="21.287">angle-down</tspan></text>
      <rect id="textfield_copy_9" data-name="textfield copy 9" class="cls-4" x="-516" y="-214" width="555" height="40"/>
      <rect id="textfield_copy_23" data-name="textfield copy 23" class="cls-4" x="-516" y="-154" width="555" height="40"/>
      <text id="dd_mm_yyyy" data-name="dd/mm/yyyy" class="cls-7" x="-516" y="10">dd/mm/yyyy</text>
      <path id="calendar-alt" class="cls-8" d="M19.974,9.987A1.307,1.307,0,0,1,21.287,11.3v9.625a1.307,1.307,0,0,1-1.312,1.313H10.349a1.307,1.307,0,0,1-1.313-1.312V11.3a1.307,1.307,0,0,1,1.313-1.312h1.313V8.675A0.421,0.421,0,0,1,12.1,8.237h0.875a0.421,0.421,0,0,1,.438.438V9.987h3.5V8.675a0.421,0.421,0,0,1,.438-0.437h0.875a0.421,0.421,0,0,1,.438.438V9.987h1.313Zm0,2.625H17.349V14.8h2.625V12.612Zm-6.125,5.25h2.625V15.675H13.849v2.188Zm2.625,0.875H13.849v2.188h2.625V18.737Zm-3.5-.875V15.675H10.349v2.188h2.625ZM13.849,14.8h2.625V12.612H13.849V14.8Zm3.5,0.875v2.188h2.625V15.675H17.349Zm-4.375-3.062H10.349V14.8h2.625V12.612Zm-2.625,8.149a0.193,0.193,0,0,0,.164.164h2.461V18.737H10.349v2.023Zm9.461,0.164a0.193,0.193,0,0,0,.164-0.164V18.737H17.349v2.188H19.81Z"/>
      <rect id="textfield_copy_27" data-name="textfield copy 27" class="cls-4" x="-516" y="55" width="555" height="40"/>
      <text id="dd_mm_yyyy_copy" data-name="dd/mm/yyyy copy" class="cls-7" x="-516" y="70">dd/mm/yyyy</text>
      <text id="calendar-alt_copy_2" data-name="calendar-alt copy 2" class="cls-9" x="21.287" y="80.487"><tspan x="21.287">calendar-alt</tspan></text>
      <rect id="textfield_copy_24" data-name="textfield copy 24" class="cls-4" x="-516" y="115" width="100" height="40"/>
      <text id="_" data-name="%" class="cls-2" x="-397.782" y="140.149">%</text>
      <rect id="textfield_copy_28" data-name="textfield copy 28" class="cls-4" x="-516" y="266" width="555" height="40"/>
      <text id="dd_mm_yyyy_copy_2" data-name="dd/mm/yyyy copy 2" class="cls-7" x="-516" y="281">dd/mm/yyyy</text>
      <text id="calendar-alt_copy_3" data-name="calendar-alt copy 3" class="cls-9" x="21.287" y="291.488"><tspan x="21.287">calendar-alt</tspan></text>
      <rect id="textfield_copy_28-2" data-name="textfield copy 28" class="cls-4" x="-516" y="326" width="555" height="40"/>
      <text id="dd_mm_yyyy_copy_2-2" data-name="dd/mm/yyyy copy 2" class="cls-7" x="-516" y="341.001">dd/mm/yyyy</text>
      <text id="calendar-alt_copy_3-2" data-name="calendar-alt copy 3" class="cls-9" x="21.287" y="351.486"><tspan x="21.287">calendar-alt</tspan></text>
      <rect id="textfield_copy_28-3" data-name="textfield copy 28" class="cls-4" x="-516" y="386" width="100" height="40"/>
      <text id="_copy_2" data-name="% copy 2" class="cls-2" x="-397.782" y="411.15">%</text>
    </g>
    <g id="big_btn_copy_2" data-name="big btn copy 2">
      <rect id="Rounded_Rectangle_1_copy_2" data-name="Rounded Rectangle 1 copy 2" class="cls-10" x="-321" y="486" width="360" height="50"/>
      <text id="Next_:_About_The_Team" data-name="Next : About The Team" class="cls-11" x="-141.492" y="515.604"><tspan x="-141.492">Next : About The Team</tspan></text>
      <rect id="Rounded_Rectangle_1_copy_10" data-name="Rounded Rectangle 1 copy 10" class="cls-12" x="-711" y="486" width="360" height="50"/>
      <text id="Previous_:_Token_Sale_Details" data-name="Previous : Token Sale Details" class="cls-11" x="-531.492" y="515.604"><tspan x="-531.492">Previous : Token Sale Details</tspan></text>
    </g>
    <g id="Tab_copy" data-name="Tab copy">
      <rect id="line_eee_copy_9" data-name="line #eee copy 9" class="cls-13" x="-906" y="-456" width="1140" height="1"/>
      <text id="About_the_Project_Token_Details_" data-name="About the Project                             Token Details    " class="cls-14" x="-905.745" y="-414.423">About the Project                             Token Details                             Token sale Details    <tspan class="cls-15">                         About The Team</tspan></text>
      <circle class="cls-12" cx="-823" cy="-455" r="15"/>
      <text id="_1" data-name="1" class="cls-16" x="-827.067" y="-449.853">1</text>
      <circle id="Ellipse_520_copy" data-name="Ellipse 520 copy" class="cls-12" cx="-499" cy="-455" r="15"/>
      <text id="_2" data-name="2" class="cls-16" x="-503.067" y="-449.853">2</text>
      <circle id="Ellipse_520_copy_2" data-name="Ellipse 520 copy 2" class="cls-12" cx="-181" cy="-455" r="15"/>
      <text id="_3" data-name="3" class="cls-16" x="-185.066" y="-449.853">3</text>
      <circle id="Ellipse_520_copy_3" data-name="Ellipse 520 copy 3" class="cls-4" cx="148" cy="-455" r="15"/>
      <text id="_4" data-name="4" class="cls-17" x="143.934" y="-449.853">4</text>
    </g>
  </g>
  <rect id="white_bg" data-name="white bg" class="cls-18" x="-1136" y="-685" width="1600" height="70"/>
  <path id="Logo" class="cls-19" d="M-874.888-670h-3.033l-9.688,10.892-6.978-8.687h2.78l4.394,5.193,6.74-7.4h-2.94l-3.741,4.105-3.454-4.082h-8.317l11.426,14.227,10.741-12.068h2.854l-13.664,16.186-14.782-18.346h-2.765l17.505,21.756,18.4-21.778h-5.48Zm-12.845,36.134,6.3,3.867,1.116-1.87-7.441-4.566-6.854,4.381,1.117,1.87Zm-0.913-3.945v-8.1l-14.543-17.725H-906l15.188,18.511v6.087l-5.827,3.582,1.116,1.87Zm4.51-1.226v-6.087l15.27-18.611-0.043-.037h-2.736L-886.3-645.911v8.1l6.976,4.288,1.116-1.871Zm31.027-9.049a7.559,7.559,0,0,1-7.531-7.591,7.586,7.586,0,0,1,7.531-7.591,7.458,7.458,0,0,1,6.532,3.879c-1.269.671-1.373,0.734-2.788,1.426a4.319,4.319,0,0,0-3.744-2.159,4.443,4.443,0,0,0-4.41,4.445,4.429,4.429,0,0,0,4.41,4.445,4.333,4.333,0,0,0,3.87-2.327c1.414,0.734,1.456.818,2.787,1.425A7.464,7.464,0,0,1-853.109-648.087Zm18.2,0.146a7.7,7.7,0,0,1-7.677-7.737,7.705,7.705,0,0,1,7.677-7.758,7.736,7.736,0,0,1,7.7,7.758A7.732,7.732,0,0,1-834.907-647.941Zm-4.536-7.737a4.591,4.591,0,0,0,4.536,4.571,4.555,4.555,0,0,0,4.493-4.571,4.574,4.574,0,0,0-4.493-4.592A4.61,4.61,0,0,0-839.443-655.678Zm19.575-2.789v10.359h-2.85v-15.035h3.745l6.637,9.352v-9.352h2.766v15.035h-2.766Zm22.508,10.38a7.558,7.558,0,0,1-7.53-7.591,7.585,7.585,0,0,1,7.53-7.591,7.454,7.454,0,0,1,6.532,3.879c-1.267.671-1.372,0.734-2.786,1.426a4.324,4.324,0,0,0-3.746-2.159,4.443,4.443,0,0,0-4.41,4.445,4.429,4.429,0,0,0,4.41,4.445,4.332,4.332,0,0,0,3.87-2.327c1.415,0.734,1.456.818,2.788,1.425A7.464,7.464,0,0,1-797.36-648.087Zm18.2,0.146a7.7,7.7,0,0,1-7.676-7.737,7.706,7.706,0,0,1,7.676-7.758,7.737,7.737,0,0,1,7.7,7.758A7.733,7.733,0,0,1-779.158-647.941Zm-4.536-7.737a4.591,4.591,0,0,0,4.536,4.571,4.554,4.554,0,0,0,4.493-4.571,4.573,4.573,0,0,0-4.493-4.592A4.61,4.61,0,0,0-783.694-655.678Zm25.484,2.013,4.162,5.557h-4l-3.744-5.389h-1.6v5.389h-3.286V-663.1h6.7c3.744,0,5.18,2.37,5.18,4.8a4.479,4.479,0,0,1-3.536,4.635h0.124Zm-5.18-6.878v4.509h2.539c1.56,0,2.85-.357,2.85-2.266,0-1.949-1.29-2.243-2.85-2.243h-2.539Zm14.645-2.558h6.407c3.849,0,6.741,2.453,6.741,7.4,0,4.341-2.206,7.57-6.741,7.57h-6.407V-663.1Zm3.266,12.2h2.912c1.893,0,3.7-1.174,3.7-4.487,0-3.02-1.061-4.949-4.285-4.949h-2.33v9.436Zm15.061-12.2h3.266v14.972h-3.266V-663.1Zm7.633,14.972,6.741-14.951h3.286l6.637,14.951h-3.162l-1.456-3.313h-7.511l-1.561,3.313h-2.974Zm8.425-12.141-2.5,5.787h4.931l-2.412-5.787h-0.023Zm-136.632,16.493-3.938,7.212h-1.152l-4.132-7.212h1.9l2.9,5.214,2.76-5.214h1.664Zm19.444,7.212h-7.392v-7.212h7.322v1.23h-5.658v1.607h3.3v1.231h-3.3v1.789h5.728v1.355Zm21.593,0h-1.139l-5.255-4.458a5.116,5.116,0,0,1-.6-0.588c0.046,0.467.07,0.835,0.07,1.1v3.942h-1.5v-7.212h1.137l5.035,4.249a7.7,7.7,0,0,1,.817.783q-0.069-1.007-.069-1.244v-3.788h1.5v7.212Zm20.385-5.926h-3.3v5.926h-1.664v-5.926h-3.286v-1.286h8.251v1.286Zm20.22,4.221a1.825,1.825,0,0,1-.383,1.356,2.089,2.089,0,0,1-1.393.349h-4.521a2.089,2.089,0,0,1-1.393-.349,1.826,1.826,0,0,1-.382-1.356v-5.507h1.664v5.857h4.743v-5.857h1.665v5.507Zm22.259,1.7h-2.386l-2.885-2.725h-1.58v2.725h-1.637v-7.212h6.13a1.336,1.336,0,0,1,1.608,1.4v1.691a1.191,1.191,0,0,1-.832,1.3,8.458,8.458,0,0,1-1.72.1Zm-2.358-4.529v-0.866a0.491,0.491,0,0,0-.208-0.476,1.089,1.089,0,0,0-.541-0.1h-3.744v2.012h3.744a1.077,1.077,0,0,0,.541-0.1A0.491,0.491,0,0,0-749.449-641.094Zm22.494,4.529h-7.392v-7.212h7.322v1.23h-5.658v1.607h3.3v1.231h-3.3v1.789h5.728v1.355Zm20.954-1.7a1.806,1.806,0,0,1-.389,1.356,2.116,2.116,0,0,1-1.4.349h-4.423a1.939,1.939,0,0,1-1.443-.391,2.365,2.365,0,0,1-.346-1.509l1.469-.308v0.853h5.062v-1.65h-4.465a2.092,2.092,0,0,1-1.394-.349,1.831,1.831,0,0,1-.381-1.357v-0.8a1.83,1.83,0,0,1,.381-1.356,2.1,2.1,0,0,1,1.394-.349h4.064a2.058,2.058,0,0,1,1.4.356,1.9,1.9,0,0,1,.375,1.377l-1.47.349v-0.824h-4.688v1.551h4.466a2.116,2.116,0,0,1,1.4.35,1.8,1.8,0,0,1,.389,1.356v0.992Z"/>
  <rect id="line_ddd" data-name="line #ddd" class="cls-20" x="-1136" y="-616" width="1600" height="1"/>
  <text id="Start_a_Project_Explore_Login_Sign_up" data-name="Start a Project          Explore          Login / Sign up" class="cls-21" x="-100.236" y="-647.151">Start a Project          Explore          Login / Sign up</text>
</svg>
