<svg id="START_A_TOKENSALE" data-name="START A TOKENSALE" xmlns="http://www.w3.org/2000/svg" width="25" height="25" viewBox="0 0 25 25">
  <metadata><?xpacket begin="﻿" id="W5M0MpCehiHzreSzNTczkc9d"?>
<x:xmpmeta xmlns:x="adobe:ns:meta/" x:xmptk="Adobe XMP Core 5.6-c140 79.160451, 2017/05/06-01:08:21        ">
   <rdf:RDF xmlns:rdf="http://www.w3.org/1999/02/22-rdf-syntax-ns#">
      <rdf:Description rdf:about=""/>
   </rdf:RDF>
</x:xmpmeta>
                                                                                                    
                                                                                                    
                                                                                                    
                                                                                                    
                                                                                                    
                                                                                                    
                                                                                                    
                                                                                                    
                                                                                                    
                                                                                                    
                                                                                                    
                                                                                                    
                                                                                                    
                                                                                                    
                                                                                                    
                                                                                                    
                                                                                                    
                                                                                                    
                                                                                                    
                                                                                                    
                           
<?xpacket end="w"?></metadata>
<defs>
    <style>
      .cls-1 {
        font-size: 32px;
      }

      .cls-1, .cls-22, .cls-23 {
        fill: #333;
      }

      .cls-1, .cls-10, .cls-14, .cls-16, .cls-17, .cls-2, .cls-21, .cls-22, .cls-24, .cls-25, .cls-26, .cls-30, .cls-6, .cls-8 {
        font-family: Roboto;
      }

      .cls-1, .cls-4 {
        font-weight: 700;
      }

      .cls-14, .cls-2, .cls-30, .cls-8 {
        font-size: 14px;
      }

      .cls-12, .cls-17, .cls-2, .cls-21, .cls-8 {
        fill: #666;
      }

      .cls-10, .cls-14, .cls-16, .cls-17, .cls-21, .cls-3, .cls-30, .cls-6, .cls-8 {
        font-weight: 300;
      }

      .cls-22, .cls-24, .cls-25, .cls-26, .cls-4 {
        text-transform: uppercase;
      }

      .cls-5 {
        font-family: "Font Awesome 5 Brands";
      }

      .cls-14, .cls-15, .cls-24, .cls-26, .cls-27, .cls-7, .cls-9 {
        fill: #fff;
      }

      .cls-7 {
        stroke: #333;
      }

      .cls-7, .cls-9 {
        stroke-width: 1px;
      }

      .cls-9 {
        stroke: #ddd;
      }

      .cls-10, .cls-15, .cls-16, .cls-17, .cls-21 {
        font-size: 12px;
      }

      .cls-10, .cls-16, .cls-20, .cls-25 {
        fill: #999;
      }

      .cls-11, .cls-16 {
        font-style: italic;
      }

      .cls-12, .cls-21 {
        text-anchor: end;
      }

      .cls-13 {
        fill: #009cff;
      }

      .cls-14, .cls-15, .cls-26 {
        text-anchor: middle;
      }

      .cls-15 {
        font-family: FontAwesome5FreeSolid, "Font Awesome 5 Free";
      }

      .cls-18 {
        fill: #bbb;
      }

      .cls-18, .cls-28 {
        fill-rule: evenodd;
      }

      .cls-19 {
        fill: #eee;
      }

      .cls-22, .cls-24, .cls-25 {
        font-size: 13px;
      }

      .cls-26 {
        font-size: 15px;
        font-weight: 500;
      }

      .cls-29 {
        fill: #ddd;
      }

      .cls-30 {
        fill: #010328;
      }
    </style>
  </defs>
  <text id="Start_a_Tokensale-2" data-name="Start a Tokensale" class="cls-1" x="-466.66" y="-1074.31">Start a Tokensale</text>
  <g id="Step_1" data-name="Step 1">
    <g id="FORM">
      <text id="Project_Title_Token_Name_Token_Symbol_Project_Logo_Short_D" data-name="Project Title  Token Name  Token Symbol  Project Logo   Short D" class="cls-2" x="-716" y="-865"><tspan class="cls-3">Project Title</tspan><tspan class="cls-3" x="-716" dy="33.6">Token Name</tspan><tspan class="cls-3" x="-716" dy="33.6">Token Symbol</tspan><tspan class="cls-3" x="-716" dy="33.6">Project Logo</tspan><tspan class="cls-3" x="-716" dy="50.4">Short Description</tspan><tspan class="cls-3" x="-716" dy="67.2">Description</tspan><tspan class="cls-3" x="-716" dy="134.4">Website</tspan><tspan class="cls-3" x="-716" dy="33.6">Featured Image</tspan><tspan class="cls-3" x="-716" dy="50.4">Additional Images</tspan><tspan class="cls-3" x="-716" dy="50.4">Country</tspan><tspan class="cls-4" x="-716" dy="50.4">Upload</tspan><tspan class="cls-3" x="-716" dy="33.6">Whitepaper</tspan><tspan class="cls-3" x="-716" dy="50.4">Lite paper</tspan><tspan class="cls-3" x="-716" dy="50.4">Yellow paper</tspan><tspan class="cls-4" x="-716" dy="67.2">Media</tspan><tspan class="cls-3" x="-716" dy="33.6">Video Title</tspan><tspan class="cls-3" x="-716" dy="33.6">Link to Video</tspan><tspan class="cls-4" x="-716" dy="84">Press Release</tspan><tspan class="cls-3" x="-716" dy="33.6">Link to Article</tspan><tspan class="cls-4" x="-716" dy="84">Social Media</tspan><tspan class="cls-5" x="-716" dy="16.8">Facebook-f	<tspan class="cls-6">Facebook</tspan></tspan><tspan class="cls-5" x="-716" dy="16.8">Telegram-plane	<tspan class="cls-6">Telegram</tspan></tspan><tspan class="cls-5" x="-716" dy="16.8">Twitter	<tspan class="cls-6">Twitter</tspan></tspan><tspan class="cls-5" x="-716" dy="16.8">Linkedin-in	<tspan class="cls-6">LinkedIn</tspan></tspan><tspan class="cls-5" x="-716" dy="16.8">Medium-m	<tspan class="cls-6">Medium</tspan></tspan><tspan class="cls-5" x="-716" dy="16.8">Github-alt	<tspan class="cls-6">Github</tspan></tspan><tspan class="cls-5" x="-716" dy="16.8">Discord	<tspan class="cls-6">Discord</tspan></tspan><tspan class="cls-5" x="-716" dy="16.8">btc	<tspan class="cls-6">Bitcointalk</tspan></tspan><tspan class="cls-5" x="-716" dy="16.8">Bitcoin	<tspan class="cls-6">Bitcoinwiki</tspan></tspan><tspan class="cls-5" x="-716" dy="16.8">Reddit-alien	<tspan class="cls-6">Reddit</tspan></tspan><tspan class="cls-4" x="-716" dy="50.4">Roadmap</tspan><tspan class="cls-3" x="-716" dy="33.6">Date</tspan><tspan class="cls-3" x="-716" dy="33.6">Milestone</tspan><tspan class="cls-3" x="-716" dy="67.2">Date</tspan><tspan class="cls-3" x="-716" dy="33.6">Milestone</tspan><tspan class="cls-3" x="-716" dy="67.2">Date</tspan><tspan class="cls-3" x="-716" dy="33.6">Milestone</tspan></text>
      <rect id="active_textfield" data-name="active textfield" class="cls-7" x="-521" y="-878" width="555" height="40"/>
      <text id="Sample_Typed_Text" data-name="Sample Typed Text" class="cls-8" x="-507.712" y="-853.513">Sample Typed Text</text>
      <rect id="textfield_copy_8" data-name="textfield copy 8" class="cls-9" x="-521" y="-818" width="555" height="40"/>
      <rect id="textfield_copy_9" data-name="textfield copy 9" class="cls-9" x="-521" y="-758" width="555" height="40"/>
      <rect id="textfield_copy_10" data-name="textfield copy 10" class="cls-9" x="-521" y="-609" width="555" height="70"/>
      <rect id="textfield_copy_11" data-name="textfield copy 11" class="cls-9" x="-521" y="-489" width="555" height="220"/>
      <rect id="textfield_copy_12" data-name="textfield copy 12" class="cls-9" x="-521" y="-249" width="555" height="40"/>
      <text id="One-liner_that_best_describes_your_project._Up_to_14_words._14" data-name="One-liner that best describes your project. Up to 14 words.  14" class="cls-10" x="-521" y="-593"><tspan class="cls-11">One-liner that best describes your project. Up to 14 words.</tspan><tspan class="cls-12" x="-521" dy="28.8">14 words left</tspan><tspan class="cls-11" x="-521" dy="28.8">Describe your project in up to 150 words.</tspan></text>
      <g id="small_btn" data-name="small btn">
        <rect id="Rounded_Rectangle_1" data-name="Rounded Rectangle 1" class="cls-13" x="-521" y="-698" width="120" height="40"/>
        <text id="Upload" class="cls-14" x="-469.493" y="-673.395"><tspan x="-469.493">Upload</tspan></text>
        <text id="plus" class="cls-15" x="-429.577" y="-673.825"><tspan x="-429.577">plus</tspan></text>
      </g>
      <text id="_.JPG_.PNG_Recommended_size:_min.350x350px_Square_" data-name=".JPG / .PNG, Recommended size: min.350x350px (Square)" class="cls-16" x="-521" y="-644">.JPG / .PNG, Recommended size: min.350x350px (Square)</text>
      <g id="small_btn_copy" data-name="small btn copy">
        <rect id="Rounded_Rectangle_1-2" data-name="Rounded Rectangle 1" class="cls-13" x="-521" y="-189" width="120" height="40"/>
        <text id="Upload-2" data-name="Upload" class="cls-14" x="-469.493" y="-164.394"><tspan x="-469.493">Upload</tspan></text>
        <text id="plus-2" data-name="plus" class="cls-15" x="-429.577" y="-164.826"><tspan x="-429.577">plus</tspan></text>
      </g>
      <text id="_.JPG_.PNG_Recommended_size:_750x500px_3:2_" data-name=".JPG / .PNG, Recommended size: 750x500px (3:2)" class="cls-16" x="-521" y="-135">.JPG / .PNG, Recommended size: 750x500px (3:2)</text>
      <g id="small_btn_copy_2" data-name="small btn copy 2">
        <rect id="Rounded_Rectangle_1-3" data-name="Rounded Rectangle 1" class="cls-13" x="-521" y="-101" width="120" height="40"/>
        <text id="Upload-3" data-name="Upload" class="cls-14" x="-469.493" y="-76.394"><tspan x="-469.493">Upload</tspan></text>
        <text id="plus-3" data-name="plus" class="cls-15" x="-429.577" y="-76.826"><tspan x="-429.577">plus</tspan></text>
      </g>
      <text id="_.JPG_.PNG_Recommended_size:_750x500px_3:2_2" data-name=".JPG / .PNG, Recommended size: 750x500px (3:2)" class="cls-16" x="-521" y="-47">.JPG / .PNG, Recommended size: 750x500px (3:2)</text>
      <text id="Select" class="cls-17" x="-507.712" y="16.487">Select</text>
      <path id="angle-down" class="cls-18" d="M12.138,14.237a0.566,0.566,0,0,0,.8,0l3.188-3.187a0.566,0.566,0,0,0,0-.8l-0.539-.516a0.566,0.566,0,0,0-.8,0l-2.25,2.25-2.25-2.25a0.566,0.566,0,0,0-.8,0l-0.539.516a0.566,0.566,0,0,0,0,.8Z"/>
      <rect id="line_eee" data-name="line #eee" class="cls-19" x="-716" y="62" width="750" height="1"/>
      <rect id="line_eee_copy_10" data-name="line #eee copy 10" class="cls-19" x="-716" y="425" width="750" height="1"/>
      <rect id="line_eee_copy_11" data-name="line #eee copy 11" class="cls-19" x="-716" y="695" width="750" height="1"/>
      <rect id="line_eee_copy_12" data-name="line #eee copy 12" class="cls-19" x="-716" y="905" width="750" height="1"/>
      <rect id="line_eee_copy_13" data-name="line #eee copy 13" class="cls-19" x="-716" y="1595" width="750" height="1"/>
      <g id="small_btn_copy_3" data-name="small btn copy 3">
        <rect id="Rounded_Rectangle_1-4" data-name="Rounded Rectangle 1" class="cls-13" x="-521" y="141" width="120" height="40"/>
        <text id="Upload-4" data-name="Upload" class="cls-14" x="-469.493" y="165.606"><tspan x="-469.493">Upload</tspan></text>
        <text id="plus-4" data-name="plus" class="cls-15" x="-429.577" y="165.174"><tspan x="-429.577">plus</tspan></text>
      </g>
      <text id="_.PDF_Max._15mb" data-name=".PDF, Max. 15mb" class="cls-16" x="-521" y="195">.PDF, Max. 15mb</text>
      <g id="small_btn_copy_4" data-name="small btn copy 4">
        <rect id="Rounded_Rectangle_1-5" data-name="Rounded Rectangle 1" class="cls-13" x="-521" y="230" width="120" height="40"/>
        <text id="Upload-5" data-name="Upload" class="cls-14" x="-469.493" y="254.605"><tspan x="-469.493">Upload</tspan></text>
        <text id="plus-5" data-name="plus" class="cls-15" x="-429.577" y="254.175"><tspan x="-429.577">plus</tspan></text>
      </g>
      <text id="_.PDF_Max._15mb_copy" data-name=".PDF, Max. 15mb copy" class="cls-16" x="-521" y="284">.PDF, Max. 15mb</text>
      <g id="small_btn_copy_5" data-name="small btn copy 5">
        <rect id="Rounded_Rectangle_1-6" data-name="Rounded Rectangle 1" class="cls-13" x="-521" y="322" width="120" height="40"/>
        <text id="Upload-6" data-name="Upload" class="cls-14" x="-469.493" y="346.605"><tspan x="-469.493">Upload</tspan></text>
        <text id="plus-6" data-name="plus" class="cls-15" x="-429.577" y="346.175"><tspan x="-429.577">plus</tspan></text>
      </g>
      <text id="_.PDF_Max._15mb_copy_2" data-name=".PDF, Max. 15mb copy 2" class="cls-16" x="-521" y="376">.PDF, Max. 15mb</text>
      <rect id="textfield_copy_13" data-name="textfield copy 13" class="cls-9" x="-521" y="501" width="555" height="40"/>
      <rect id="textfield_copy_14" data-name="textfield copy 14" class="cls-9" x="-521" y="561" width="555" height="40"/>
      <g id="small_btn_copy_6" data-name="small btn copy 6">
        <rect id="Rounded_Rectangle_1-7" data-name="Rounded Rectangle 1" class="cls-20" x="-66" y="621" width="100" height="40"/>
        <text id="Add" class="cls-14" x="-26.492" y="645.605"><tspan x="-26.492">Add</tspan></text>
        <text id="plus-7" data-name="plus" class="cls-15" x="3.422" y="645.175"><tspan x="3.422">plus</tspan></text>
      </g>
      <rect id="textfield_copy_15" data-name="textfield copy 15" class="cls-9" x="-521" y="771" width="555" height="40"/>
      <rect id="textfield_copy_16" data-name="textfield copy 16" class="cls-9" x="-326" y="980" width="360" height="40"/>
      <rect id="textfield_copy_16-2" data-name="textfield copy 16" class="cls-9" x="-326" y="1040" width="360" height="40"/>
      <rect id="textfield_copy_16-3" data-name="textfield copy 16" class="cls-9" x="-326" y="1100" width="360" height="40"/>
      <rect id="textfield_copy_17" data-name="textfield copy 17" class="cls-9" x="-326" y="1160" width="360" height="40"/>
      <rect id="textfield_copy_17-2" data-name="textfield copy 17" class="cls-9" x="-326" y="1220" width="360" height="40"/>
      <rect id="textfield_copy_17-3" data-name="textfield copy 17" class="cls-9" x="-326" y="1280" width="360" height="40"/>
      <rect id="textfield_copy_18" data-name="textfield copy 18" class="cls-9" x="-326" y="1340" width="360" height="40"/>
      <rect id="textfield_copy_18-2" data-name="textfield copy 18" class="cls-9" x="-326" y="1400" width="360" height="40"/>
      <rect id="textfield_copy_18-3" data-name="textfield copy 18" class="cls-9" x="-326" y="1460" width="360" height="40"/>
      <rect id="textfield_copy_19" data-name="textfield copy 19" class="cls-9" x="-326" y="1520" width="360" height="40"/>
      <text id="www.facebook.com_www.t.me_www.twitter.com_www.linkedin.co" data-name="www.facebook.com/  www.t.me/  www.twitter.com/  www.linkedin.co" class="cls-21" x="-521" y="995"><tspan x="-521">www.facebook.com/</tspan><tspan x="-521" dy="28.8">www.t.me/</tspan><tspan x="-521" dy="28.8">www.twitter.com/</tspan><tspan x="-521" dy="28.8">www.linkedin.com/in/</tspan><tspan x="-521" dy="28.8">www.medium.com/</tspan><tspan x="-521" dy="28.8">www.github.com/</tspan><tspan x="-521" dy="28.8">www.discordapp.com/</tspan><tspan x="-521" dy="28.8">www.bitcointalk.org/</tspan><tspan x="-521" dy="28.8">www.bitcoinwiki.org/</tspan><tspan x="-521" dy="28.8">www.reddit.com/</tspan></text>
      <g id="small_btn_copy_7" data-name="small btn copy 7">
        <rect id="Rounded_Rectangle_1-8" data-name="Rounded Rectangle 1" class="cls-20" x="-66" y="831" width="100" height="40"/>
        <text id="Add-2" data-name="Add" class="cls-14" x="-26.492" y="855.605"><tspan x="-26.492">Add</tspan></text>
        <text id="plus-8" data-name="plus" class="cls-15" x="3.422" y="855.175"><tspan x="3.422">plus</tspan></text>
      </g>
      <rect id="textfield_copy_20" data-name="textfield copy 20" class="cls-9" x="-521" y="1672" width="555" height="40"/>
      <rect id="textfield_copy_20-2" data-name="textfield copy 20" class="cls-9" x="-521" y="1732" width="555" height="70"/>
      <rect id="textfield_copy_21" data-name="textfield copy 21" class="cls-9" x="-521" y="1852" width="555" height="40"/>
      <rect id="textfield_copy_21-2" data-name="textfield copy 21" class="cls-9" x="-521" y="1912" width="555" height="70"/>
      <rect id="textfield_copy_22" data-name="textfield copy 22" class="cls-9" x="-521" y="2032" width="555" height="40"/>
      <rect id="textfield_copy_22-2" data-name="textfield copy 22" class="cls-9" x="-521" y="2092" width="555" height="70"/>
      <g id="small_btn_copy_8" data-name="small btn copy 8">
        <rect id="Rounded_Rectangle_1-9" data-name="Rounded Rectangle 1" class="cls-20" x="-66" y="2182" width="100" height="40"/>
        <text id="Add-3" data-name="Add" class="cls-14" x="-26.492" y="2206.605"><tspan x="-26.492">Add</tspan></text>
        <text id="plus-9" data-name="plus" class="cls-15" x="3.422" y="2206.175"><tspan x="3.422">plus</tspan></text>
      </g>
    </g>
    <g id="Tab">
      <rect id="line_eee_copy_9" data-name="line #eee copy 9" class="cls-19" x="-911" y="-1000" width="1140" height="1"/>
      <text id="About_the_Project_Token_Details_" data-name="About the Project                             Token Details    " class="cls-22" x="-910.745" y="-958.423">About the Project<tspan class="cls-20">                             Token Details                             Token sale Details                             About The Team</tspan></text>
      <circle class="cls-23" cx="-828" cy="-999" r="15"/>
      <text id="_1" data-name="1" class="cls-24" x="-832.067" y="-993.852">1</text>
      <circle id="Ellipse_520_copy" data-name="Ellipse 520 copy" class="cls-9" cx="-504" cy="-999" r="15"/>
      <text id="_2" data-name="2" class="cls-25" x="-508.067" y="-993.852">2</text>
      <circle id="Ellipse_520_copy_2" data-name="Ellipse 520 copy 2" class="cls-9" cx="-186" cy="-999" r="15"/>
      <text id="_3" data-name="3" class="cls-25" x="-190.066" y="-993.852">3</text>
      <circle id="Ellipse_520_copy_3" data-name="Ellipse 520 copy 3" class="cls-9" cx="143" cy="-999" r="15"/>
      <text id="_4" data-name="4" class="cls-25" x="138.934" y="-993.852">4</text>
    </g>
    <g id="big_btn_copy_2" data-name="big btn copy 2">
      <rect id="Rounded_Rectangle_1_copy_2" data-name="Rounded Rectangle 1 copy 2" class="cls-13" x="-716" y="2282" width="750" height="50"/>
      <text id="Next_:_Token_Details" data-name="Next : Token Details" class="cls-26" x="-341.493" y="2311.605"><tspan x="-341.493">Next : Token Details</tspan></text>
    </g>
  </g>
  <rect id="white_bg" data-name="white bg" class="cls-27" x="-1141" y="-1229" width="1600" height="70"/>
  <path id="Logo" class="cls-28" d="M-879.888-1214h-3.033l-9.688,10.89-6.978-8.69h2.78l4.394,5.2,6.74-7.4h-2.94l-3.741,4.1-3.454-4.08h-8.317l11.426,14.23,10.741-12.07h2.854l-13.664,16.19-14.782-18.35h-2.765l17.505,21.76,18.4-21.78h-5.48Zm-12.845,36.13,6.3,3.87,1.116-1.87-7.441-4.57-6.854,4.38,1.117,1.88Zm-0.913-3.94v-8.1l-14.543-17.73H-911l15.188,18.52v6.08l-5.827,3.58,1.116,1.87Zm4.51-1.23v-6.08l15.27-18.62-0.043-.03h-2.736l-14.656,17.86v8.1l6.976,4.29,1.116-1.88Zm31.027-9.05a7.554,7.554,0,0,1-7.531-7.59,7.586,7.586,0,0,1,7.531-7.59,7.449,7.449,0,0,1,6.532,3.88c-1.269.67-1.373,0.73-2.788,1.43a4.318,4.318,0,0,0-3.744-2.16,4.44,4.44,0,0,0-4.41,4.44,4.43,4.43,0,0,0,4.41,4.45,4.326,4.326,0,0,0,3.87-2.33c1.414,0.73,1.456.82,2.787,1.43A7.46,7.46,0,0,1-858.109-1192.09Zm18.2,0.15a7.7,7.7,0,0,1-7.677-7.74,7.706,7.706,0,0,1,7.677-7.76,7.737,7.737,0,0,1,7.7,7.76A7.733,7.733,0,0,1-839.907-1191.94Zm-4.536-7.74a4.588,4.588,0,0,0,4.536,4.57,4.552,4.552,0,0,0,4.493-4.57,4.575,4.575,0,0,0-4.493-4.59A4.612,4.612,0,0,0-844.443-1199.68Zm19.575-2.79v10.36h-2.85v-15.03h3.745l6.637,9.35v-9.35h2.766v15.03h-2.766Zm22.508,10.38a7.554,7.554,0,0,1-7.53-7.59,7.586,7.586,0,0,1,7.53-7.59,7.445,7.445,0,0,1,6.532,3.88c-1.267.67-1.372,0.73-2.786,1.43a4.322,4.322,0,0,0-3.746-2.16,4.44,4.44,0,0,0-4.41,4.44,4.43,4.43,0,0,0,4.41,4.45,4.325,4.325,0,0,0,3.87-2.33c1.415,0.73,1.456.82,2.788,1.43A7.461,7.461,0,0,1-802.36-1192.09Zm18.2,0.15a7.7,7.7,0,0,1-7.676-7.74,7.707,7.707,0,0,1,7.676-7.76,7.738,7.738,0,0,1,7.7,7.76A7.733,7.733,0,0,1-784.158-1191.94Zm-4.536-7.74a4.588,4.588,0,0,0,4.536,4.57,4.551,4.551,0,0,0,4.493-4.57,4.575,4.575,0,0,0-4.493-4.59A4.612,4.612,0,0,0-788.694-1199.68Zm25.484,2.01,4.162,5.56h-4l-3.744-5.39h-1.6v5.39h-3.286v-14.99h6.7c3.744,0,5.18,2.37,5.18,4.8a4.467,4.467,0,0,1-3.536,4.63h0.124Zm-5.18-6.87v4.51h2.539c1.56,0,2.85-.36,2.85-2.27,0-1.95-1.29-2.24-2.85-2.24h-2.539Zm14.645-2.56h6.407c3.849,0,6.741,2.45,6.741,7.4,0,4.34-2.206,7.57-6.741,7.57h-6.407v-14.97Zm3.266,12.2h2.912c1.893,0,3.7-1.17,3.7-4.48,0-3.02-1.061-4.95-4.285-4.95h-2.33v9.43Zm15.061-12.2h3.266v14.97h-3.266v-14.97Zm7.633,14.97,6.741-14.95h3.286l6.637,14.95h-3.162l-1.456-3.31h-7.511l-1.561,3.31h-2.974Zm8.425-12.14-2.5,5.79h4.931l-2.412-5.79h-0.023Zm-136.632,16.49-3.938,7.22h-1.152l-4.132-7.22h1.9l2.9,5.22,2.76-5.22h1.664Zm19.444,7.22h-7.392v-7.22h7.322v1.23h-5.658v1.61h3.3v1.23h-3.3v1.79h5.728v1.36Zm21.593,0h-1.139l-5.255-4.46a5.957,5.957,0,0,1-.6-0.59c0.046,0.47.07,0.83,0.07,1.1v3.95h-1.5v-7.22h1.137l5.035,4.25a7.364,7.364,0,0,1,.817.79c-0.046-.68-0.069-1.09-0.069-1.25v-3.79h1.5v7.22Zm20.385-5.93h-3.3v5.93h-1.664v-5.93h-3.286v-1.29h8.251v1.29Zm20.22,4.22a1.849,1.849,0,0,1-.383,1.36,2.105,2.105,0,0,1-1.393.35h-4.521a2.105,2.105,0,0,1-1.393-.35,1.849,1.849,0,0,1-.382-1.36v-5.51h1.664v5.86h4.743v-5.86h1.665v5.51Zm22.259,1.71h-2.386l-2.885-2.73h-1.58v2.73h-1.637v-7.22h6.13a1.338,1.338,0,0,1,1.608,1.4v1.69a1.191,1.191,0,0,1-.832,1.3,8.022,8.022,0,0,1-1.72.1Zm-2.358-4.53v-0.87a0.506,0.506,0,0,0-.208-0.48,1.154,1.154,0,0,0-.541-0.09h-3.744v2.01h3.744a1.02,1.02,0,0,0,.541-0.1A0.478,0.478,0,0,0-754.449-1185.09Zm22.494,4.53h-7.392v-7.22h7.322v1.23h-5.658v1.61h3.3v1.23h-3.3v1.79h5.728v1.36Zm20.954-1.71a1.83,1.83,0,0,1-.389,1.36,2.133,2.133,0,0,1-1.4.35h-4.423a1.9,1.9,0,0,1-1.443-.4,2.357,2.357,0,0,1-.346-1.51l1.469-.3v0.85h5.062v-1.65h-4.465a2.109,2.109,0,0,1-1.394-.35,1.822,1.822,0,0,1-.381-1.36v-0.79a1.854,1.854,0,0,1,.381-1.36,2.109,2.109,0,0,1,1.394-.35h4.064a2.039,2.039,0,0,1,1.4.36,1.915,1.915,0,0,1,.375,1.38l-1.47.35v-0.83h-4.688v1.55h4.466a2.133,2.133,0,0,1,1.4.35,1.814,1.814,0,0,1,.389,1.36v0.99Z"/>
  <rect id="line_ddd" data-name="line #ddd" class="cls-29" x="-1141" y="-1160" width="1600" height="1"/>
  <text id="Start_a_Project_Explore_Login_Sign_up" data-name="Start a Project          Explore          Login / Sign up" class="cls-30" x="-105.236" y="-1191.15">Start a Project          Explore          Login / Sign up</text>
</svg>
